<svg width="24" height="24" viewBox="0 0 24 24" fill="none" xmlns="http://www.w3.org/2000/svg">
<path d="M10.562 4.14787C11.5104 3.94967 12.4896 3.94967 13.438 4.14787L15.121 2.46387L16.536 3.87887L15.486 4.92887C16.7223 5.64066 17.7129 6.71175 18.326 7.99987H21V9.99987H18.93C18.976 10.3269 19 10.6599 19 10.9999V11.9999H21V13.9999H19V14.9999C19 15.3399 18.976 15.6729 18.93 15.9999H21V17.9999H18.326C17.7586 19.1975 16.8629 20.2095 15.7431 20.9181C14.6232 21.6267 13.3252 22.0029 12 22.0029C10.6748 22.0029 9.37677 21.6267 8.25692 20.9181C7.13707 20.2095 6.24138 19.1975 5.674 17.9999H3V15.9999H5.07C5.023 15.6686 4.99961 15.3344 5 14.9999V13.9999H3V11.9999H5V10.9999C5 10.6599 5.024 10.3269 5.07 9.99987H3V7.99987H5.674C6.28697 6.71138 7.27751 5.63993 8.514 4.92787L7.464 3.87787L8.88 2.46487L10.563 4.14887L10.562 4.14787ZM12 5.99987C10.6739 5.99987 9.40215 6.52665 8.46447 7.46433C7.52678 8.40202 7 9.67379 7 10.9999V14.9999C7 16.3259 7.52678 17.5977 8.46447 18.5354C9.40215 19.4731 10.6739 19.9999 12 19.9999C13.3261 19.9999 14.5979 19.4731 15.5355 18.5354C16.4732 17.5977 17 16.3259 17 14.9999V10.9999C17 9.67379 16.4732 8.40202 15.5355 7.46433C14.5979 6.52665 13.3261 5.99987 12 5.99987ZM9 13.9999H15V15.9999H9V13.9999ZM9 9.99987H15V11.9999H9V9.99987Z" fill="#1D1D1D"/>
</svg>
