<svg width="24" height="24" viewBox="0 0 24 24" fill="none" xmlns="http://www.w3.org/2000/svg">
<path d="M21.9399 7.87708C21.8912 6.81262 21.7221 6.08569 21.4749 5.44971C21.2239 4.78244 20.8303 4.17804 20.3215 3.67847C19.8221 3.16974 19.2176 2.77591 18.5503 2.52475C17.9142 2.27771 17.1874 2.1088 16.1229 2.06042C15.0565 2.0116 14.7158 2 12 2C9.28424 2 8.94351 2.0116 7.87708 2.06012C6.81262 2.1088 6.08585 2.27786 5.44971 2.52506C4.78244 2.77606 4.17804 3.16974 3.67847 3.67847C3.16974 4.17789 2.77591 4.78229 2.52475 5.44956C2.27771 6.08569 2.1088 6.81262 2.06042 7.87692C2.0116 8.94351 2 9.28409 2 11.9998C2 14.7158 2.0116 15.0565 2.06042 16.1229C2.10895 17.1872 2.27802 17.9142 2.52521 18.5503C2.77621 19.2174 3.16989 19.822 3.67862 20.3214C4.17804 20.8301 4.78259 21.2238 5.44986 21.4748C6.08585 21.7221 6.81277 21.8911 7.87723 21.9397C8.94382 21.9884 9.28439 21.9999 12.0002 21.9999C14.7159 21.9999 15.0566 21.9884 16.1231 21.9397C17.1875 21.8911 17.9143 21.7221 18.5504 21.4748C19.8937 20.9554 20.9555 19.8935 21.4749 18.5503C21.7223 17.9142 21.8912 17.1872 21.9399 16.1229C21.9884 15.0563 22 14.7158 22 12C22 9.28409 21.9884 8.94351 21.9399 7.87708V7.87708ZM20.1398 16.041C20.0954 17.016 19.9324 17.5455 19.7956 17.8978C19.4591 18.77 18.7699 19.4593 17.8977 19.7957C17.5453 19.9326 17.0159 20.0956 16.0408 20.14C14.9866 20.1882 14.6703 20.1982 12 20.1982C9.32956 20.1982 9.0134 20.1882 7.95901 20.14C6.98413 20.0956 6.45465 19.9326 6.10217 19.7957C5.66791 19.6353 5.27499 19.3798 4.95242 19.0476C4.62024 18.725 4.36465 18.3322 4.20428 17.8978C4.06741 17.5455 3.90445 17.016 3.86005 16.041C3.81198 14.9866 3.80176 14.6703 3.80176 12.0002C3.80176 9.32987 3.81198 9.0137 3.86005 7.95917C3.9046 6.98413 4.06741 6.45465 4.20428 6.10233C4.36465 5.66791 4.62039 5.27499 4.95242 4.95242C5.27499 4.62024 5.66791 4.36465 6.10233 4.20444C6.45465 4.06741 6.98413 3.9046 7.95917 3.86005C9.01355 3.81198 9.32986 3.80176 12 3.80176H11.9998C14.67 3.80176 14.9863 3.81198 16.0408 3.8602C17.0159 3.9046 17.5452 4.06757 17.8977 4.20444C18.3319 4.36481 18.7249 4.62039 19.0474 4.95242C19.3796 5.27499 19.6352 5.66791 19.7954 6.10233C19.9324 6.45465 20.0954 6.98413 20.1398 7.95917C20.1879 9.01355 20.1981 9.32987 20.1981 12C20.1981 14.6703 20.188 14.9865 20.1398 16.041Z" fill="url(#paint0_linear_231_38)"/>
<path d="M11.9998 6.86475C9.16379 6.86475 6.86475 9.16394 6.86475 11.9999C6.86475 14.8359 9.16379 17.135 11.9998 17.135C14.8359 17.135 17.135 14.8359 17.135 11.9999C17.135 9.16394 14.8359 6.86475 11.9998 6.86475V6.86475ZM11.9998 15.3332C10.159 15.3331 8.6665 13.8408 8.66666 11.9998C8.66666 10.159 10.159 8.6665 11.9999 8.6665C13.8409 8.66666 15.3332 10.159 15.3332 11.9998C15.3332 13.8408 13.8408 15.3332 11.9998 15.3332V15.3332Z" fill="url(#paint1_linear_231_38)"/>
<path d="M18.5379 6.66202C18.5379 7.32471 18.0006 7.86197 17.3379 7.86197C16.6751 7.86197 16.1378 7.32471 16.1378 6.66202C16.1378 5.99918 16.6751 5.46191 17.3379 5.46191C18.0006 5.46191 18.5379 5.99918 18.5379 6.66202V6.66202Z" fill="url(#paint2_linear_231_38)"/>
<defs>
<linearGradient id="paint0_linear_231_38" x1="3.67837" y1="20.3215" x2="20.3216" y2="3.67821" gradientUnits="userSpaceOnUse">
<stop stop-color="#FFD600"/>
<stop offset="0.5" stop-color="#FF0100"/>
<stop offset="1" stop-color="#D800B9"/>
</linearGradient>
<linearGradient id="paint1_linear_231_38" x1="8.36881" y1="15.6309" x2="15.6309" y2="8.3688" gradientUnits="userSpaceOnUse">
<stop stop-color="#FF6400"/>
<stop offset="0.5" stop-color="#FF0100"/>
<stop offset="1" stop-color="#FD0056"/>
</linearGradient>
<linearGradient id="paint2_linear_231_38" x1="16.4894" y1="7.51046" x2="18.1864" y2="5.81344" gradientUnits="userSpaceOnUse">
<stop stop-color="#F30072"/>
<stop offset="1" stop-color="#E50097"/>
</linearGradient>
</defs>
</svg>
