<svg width="24" height="24" viewBox="0 0 24 24" fill="none" xmlns="http://www.w3.org/2000/svg">
<path d="M17.2113 16.0113C18.4963 14.419 19.1216 12.3946 18.9586 10.3551C18.7955 8.31553 17.8564 6.4162 16.3348 5.04837C14.8131 3.68055 12.8248 2.94842 10.7795 3.00283C8.73416 3.05723 6.78759 3.89402 5.34081 5.34081C3.89402 6.78759 3.05723 8.73416 3.00283 10.7795C2.94842 12.8248 3.68055 14.8131 5.04837 16.3348C6.4162 17.8564 8.31553 18.7955 10.3551 18.9586C12.3946 19.1216 14.419 18.4963 16.0113 17.2113L19.1613 20.3673C19.2399 20.4464 19.3334 20.5091 19.4363 20.552C19.5393 20.5948 19.6497 20.6168 19.7613 20.6168C19.8728 20.6168 19.9832 20.5948 20.0862 20.552C20.1891 20.5091 20.2826 20.4464 20.3613 20.3673V20.3673C20.4403 20.2886 20.5031 20.1951 20.546 20.0922C20.5888 19.9892 20.6108 19.8788 20.6108 19.7673C20.6108 19.6557 20.5888 19.5453 20.546 19.4423C20.5031 19.3394 20.4403 19.2459 20.3613 19.1673L17.2113 16.0113ZM10.9953 17.3253C9.75178 17.33 8.53488 16.9656 7.49865 16.2782C6.46243 15.5909 5.65352 14.6114 5.17436 13.464C4.69521 12.3165 4.56738 11.0526 4.80705 9.83248C5.04673 8.61231 5.64313 7.49072 6.52072 6.60977C7.39831 5.72881 8.51761 5.12812 9.73685 4.88378C10.9561 4.63944 12.2204 4.76243 13.3697 5.23719C14.519 5.71194 15.5015 6.5171 16.1929 7.55068C16.8842 8.58427 17.2532 9.79978 17.2533 11.0433C17.2517 12.7047 16.5926 14.298 15.4201 15.4751C14.2475 16.6522 12.6567 17.3173 10.9953 17.3253Z" fill="#7C7C7C"/>
</svg>
